<svg width="57" height="49" viewBox="0 0 57 49" fill="none" xmlns="http://www.w3.org/2000/svg">
<path d="M54.5013 21.9484L56.1881 3.79126C56.2354 3.28353 56.1707 2.77156 55.9988 2.29183C55.827 1.81211 55.552 1.37642 55.1936 1.01582C54.8353 0.655222 54.4023 0.378581 53.9255 0.205605C53.4487 0.0326288 52.9399 -0.0324241 52.4352 0.015081L34.2932 1.72146C33.6404 1.77913 33.0179 2.02445 32.4999 2.42818C31.9818 2.83191 31.5901 3.37702 31.3714 3.99851C31.1551 4.63615 31.1228 5.32244 31.2783 5.97779C31.4339 6.63314 31.7709 7.2307 32.2503 7.70118L36.1034 11.5783L0.202531 47.6999C0.0825496 47.8208 0.0108795 47.9818 0.00114087 48.1523C-0.0085978 48.3229 0.0442736 48.4911 0.149708 48.625C0.255142 48.7589 0.40579 48.8491 0.573024 48.8786C0.740258 48.908 0.912422 48.8747 1.0568 48.7848L17.1989 38.7261C17.307 38.6587 17.4314 38.6226 17.5585 38.6216C17.6856 38.6207 17.8105 38.655 17.9196 38.7208C18.0286 38.7865 18.1175 38.8812 18.1766 38.9945C18.2356 39.1077 18.2626 39.2352 18.2544 39.3628L17.8635 45.496C17.8545 45.6373 17.8884 45.778 17.9609 45.8994C18.0333 46.0207 18.1408 46.117 18.269 46.1754C18.3972 46.2337 18.5401 46.2514 18.6785 46.226C18.8169 46.2006 18.9444 46.1333 19.0439 46.0332L44.6959 20.2232L48.6229 24.1742C49.0724 24.6317 49.6405 24.9531 50.2626 25.1018C50.8847 25.2504 51.5358 25.2204 52.1418 25.015C52.7877 24.7883 53.3545 24.378 53.7733 23.8337C54.1921 23.2893 54.445 22.6345 54.5013 21.9484Z" fill="white"/>
</svg>
