<svg width="214" height="37" viewBox="0 0 214 37" fill="none" xmlns="http://www.w3.org/2000/svg">
<path d="M15.26 8.03681V15.503H23.3991V17.9063H15.26V25.5967H24.3604V28H12.3441V5.63353H24.3604V8.03681H15.26ZM27.6832 19.156C27.6832 17.3615 28.0464 15.7914 28.7727 14.4455C29.499 13.0783 30.4924 12.0209 31.7527 11.2732C33.0345 10.5255 34.4551 10.1517 36.0145 10.1517C37.5526 10.1517 38.8878 10.4828 40.02 11.145C41.1522 11.8073 41.996 12.6404 42.5515 13.6444V10.4401H45.4995V28H42.5515V24.7315C41.9747 25.7569 41.1095 26.6114 39.9559 27.295C38.8237 27.9573 37.4992 28.2884 35.9825 28.2884C34.423 28.2884 33.0131 27.9039 31.7527 27.1348C30.4924 26.3658 29.499 25.287 28.7727 23.8984C28.0464 22.5099 27.6832 20.929 27.6832 19.156ZM42.5515 19.188C42.5515 17.8635 42.2844 16.71 41.7504 15.7273C41.2163 14.7446 40.49 13.9969 39.5714 13.4842C38.6742 12.9502 37.6808 12.6831 36.5913 12.6831C35.5018 12.6831 34.5085 12.9395 33.6113 13.4522C32.7141 13.9649 31.9984 14.7126 31.4644 15.6952C30.9303 16.6779 30.6633 17.8315 30.6633 19.156C30.6633 20.5018 30.9303 21.6767 31.4644 22.6808C31.9984 23.6634 32.7141 24.4218 33.6113 24.9559C34.5085 25.4686 35.5018 25.7249 36.5913 25.7249C37.6808 25.7249 38.6742 25.4686 39.5714 24.9559C40.49 24.4218 41.2163 23.6634 41.7504 22.6808C42.2844 21.6767 42.5515 20.5125 42.5515 19.188ZM56.6436 28.2884C55.2978 28.2884 54.0908 28.0641 53.0227 27.6155C51.9546 27.1455 51.1108 26.5046 50.4913 25.6929C49.8718 24.8597 49.53 23.9091 49.4659 22.841H52.478C52.5634 23.7168 52.9693 24.4325 53.6956 24.9879C54.4433 25.5433 55.4153 25.821 56.6116 25.821C57.7225 25.821 58.5983 25.5754 59.2392 25.084C59.8801 24.5927 60.2005 23.9732 60.2005 23.2255C60.2005 22.4564 59.8587 21.8903 59.1751 21.5272C58.4915 21.1427 57.4341 20.7688 56.0028 20.4057C54.6997 20.0639 53.6315 19.7221 52.7984 19.3803C51.9866 19.0171 51.2817 18.4937 50.6835 17.8101C50.1067 17.1052 49.8184 16.1866 49.8184 15.0544C49.8184 14.1571 50.0854 13.3347 50.6194 12.587C51.1535 11.8393 51.9119 11.2519 52.8945 10.8246C53.8772 10.376 54.9987 10.1517 56.2591 10.1517C58.2031 10.1517 59.7732 10.643 60.9695 11.6257C62.1658 12.6084 62.8067 13.9542 62.8922 15.6632H59.9762C59.9121 14.7446 59.5383 14.0076 58.8547 13.4522C58.1924 12.8968 57.2952 12.619 56.163 12.619C55.1162 12.619 54.2831 12.8434 53.6636 13.292C53.0441 13.7406 52.7343 14.328 52.7343 15.0544C52.7343 15.6312 52.9159 16.1118 53.2791 16.4963C53.6636 16.8595 54.1336 17.1586 54.689 17.3936C55.2658 17.6072 56.0562 17.8528 57.0602 18.1306C58.3206 18.4724 59.346 18.8142 60.1364 19.156C60.9268 19.4764 61.5997 19.9677 62.1552 20.63C62.7319 21.2922 63.031 22.1574 63.0524 23.2255C63.0524 24.1868 62.7853 25.052 62.2513 25.821C61.7172 26.5901 60.9589 27.1989 59.9762 27.6475C59.0149 28.0748 57.904 28.2884 56.6436 28.2884ZM82.2933 10.4401L71.7189 36.2673H68.7068L72.1675 27.8077L65.0859 10.4401H68.3223L73.8338 24.6675L79.2812 10.4401H82.2933ZM100.541 12.3627C100.029 11.4228 99.3238 10.7071 98.4266 10.2158C97.5293 9.72444 96.4826 9.47877 95.2863 9.47877C93.9618 9.47877 92.7869 9.77785 91.7615 10.376C90.7361 10.9741 89.935 11.8286 89.3582 12.9395C88.7814 14.0503 88.493 15.3321 88.493 16.7847C88.493 18.2801 88.7814 19.5832 89.3582 20.694C89.9564 21.8049 90.7788 22.6594 91.8256 23.2575C92.8723 23.8557 94.09 24.1548 95.4785 24.1548C97.1875 24.1548 98.5868 23.7062 99.6763 22.8089C100.766 21.8903 101.481 20.6193 101.823 18.9957H94.1327V15.5671H106.245V19.4764C105.946 21.0358 105.305 22.4778 104.323 23.8023C103.34 25.1268 102.069 26.1949 100.509 27.0066C98.9713 27.7971 97.2409 28.1923 95.3183 28.1923C93.1607 28.1923 91.2061 27.7116 89.4543 26.7503C87.724 25.7676 86.3568 24.4111 85.3528 22.6808C84.3701 20.9504 83.8787 18.9851 83.8787 16.7847C83.8787 14.5844 84.3701 12.619 85.3528 10.8887C86.3568 9.13697 87.724 7.78046 89.4543 6.81915C91.2061 5.83648 93.15 5.34514 95.2863 5.34514C97.8071 5.34514 99.9967 5.96465 101.855 7.20367C103.714 8.42133 104.996 10.141 105.7 12.3627H100.541ZM114.05 13.0036C114.627 12.0636 115.375 11.3266 116.293 10.7926C117.233 10.2585 118.301 9.99147 119.498 9.99147V14.7019H118.312C116.902 14.7019 115.834 15.033 115.108 15.6952C114.403 16.3575 114.05 17.511 114.05 19.156V28H109.564V10.2478H114.05V13.0036ZM170.035 10.2478L164.844 28H160.005L156.769 15.5991L153.533 28H148.662L143.439 10.2478H147.989L151.129 23.7702L154.526 10.2478H159.268L162.601 23.7382L165.741 10.2478H170.035ZM177.686 13.9328V22.5205C177.686 23.1187 177.824 23.5566 178.102 23.8343C178.401 24.0907 178.893 24.2188 179.576 24.2188H181.659V28H178.839C175.058 28 173.167 26.1628 173.167 22.4885V13.9328H171.052V10.2478H173.167V5.85784H177.686V10.2478H181.659V13.9328H177.686ZM194.883 9.99147C196.229 9.99147 197.425 10.2905 198.472 10.8887C199.519 11.4655 200.331 12.3307 200.907 13.4842C201.506 14.6164 201.805 15.9836 201.805 17.5858V28H197.319V18.1946C197.319 16.7847 196.966 15.7059 196.261 14.9582C195.556 14.1892 194.595 13.8047 193.377 13.8047C192.138 13.8047 191.155 14.1892 190.429 14.9582C189.724 15.7059 189.372 16.7847 189.372 18.1946V28H184.886V4.2877H189.372V12.4588C189.948 11.6898 190.718 11.0916 191.679 10.6644C192.64 10.2158 193.708 9.99147 194.883 9.99147Z" fill="white"/>
<path d="M131.746 28.5911C126.846 28.5911 122.859 24.6047 122.859 19.7047C122.859 14.8048 126.846 10.8184 131.746 10.8184C136.646 10.8184 140.632 14.8048 140.632 19.7047C140.632 24.6047 136.646 28.5911 131.746 28.5911Z" fill="white"/>
<mask id="mask0_7093_11864" style="mask-type:alpha" maskUnits="userSpaceOnUse" x="122" y="10" width="19" height="19">
<path d="M131.746 28.5911C126.846 28.5911 122.859 24.6047 122.859 19.7047C122.859 14.8048 126.846 10.8184 131.746 10.8184C136.646 10.8184 140.632 14.8048 140.632 19.7047C140.632 24.6047 136.646 28.5911 131.746 28.5911Z" fill="white"/>
</mask>
<g mask="url(#mask0_7093_11864)">
<path d="M136.193 23.4932L136.87 16.2037C136.889 15.9999 136.863 15.7943 136.794 15.6017C136.725 15.4091 136.615 15.2342 136.471 15.0895C136.327 14.9447 136.153 14.8336 135.962 14.7642C135.77 14.6947 135.566 14.6686 135.363 14.6877L128.08 15.3727C127.818 15.3959 127.568 15.4944 127.36 15.6565C127.152 15.8186 126.995 16.0374 126.907 16.2869C126.82 16.5429 126.807 16.8184 126.87 17.0815C126.932 17.3446 127.067 17.5845 127.26 17.7734L128.807 19.3299C127.037 21.1103 125.313 22.8356 123.633 24.5071C124.128 25.4229 126.337 27.3547 127.219 27.741L132.256 22.8006L133.833 24.3868C134.013 24.5704 134.242 24.6995 134.491 24.7591C134.741 24.8188 135.002 24.8068 135.246 24.7243C135.505 24.6333 135.733 24.4686 135.901 24.25C136.069 24.0315 136.17 23.7686 136.193 23.4932Z" fill="#0170BF"/>
</g>
</svg>
