<svg width="277" height="48" viewBox="0 0 277 48" fill="none" xmlns="http://www.w3.org/2000/svg">
<path d="M19.7483 11.1653V20.8274H30.2812V23.9375H19.7483V33.8899H31.5253V37H15.9747V8.05516H31.5253V11.1653H19.7483ZM35.8253 25.5548C35.8253 23.2325 36.2953 21.2006 37.2352 19.4589C38.1752 17.6896 39.4607 16.3212 41.0918 15.3536C42.7505 14.386 44.5889 13.9022 46.6071 13.9022C48.5975 13.9022 50.3254 14.3307 51.7906 15.1877C53.2558 16.0447 54.3478 17.1229 55.0666 18.4222V14.2754H58.8817V37H55.0666V32.7702C54.3202 34.0972 53.2005 35.203 51.7077 36.0877C50.2424 36.9447 48.5284 37.3732 46.5656 37.3732C44.5475 37.3732 42.7229 36.8756 41.0918 35.8804C39.4607 34.8851 38.1752 33.489 37.2352 31.6921C36.2953 29.8951 35.8253 27.8493 35.8253 25.5548ZM55.0666 25.5962C55.0666 23.8822 54.721 22.3894 54.0299 21.1177C53.3387 19.846 52.3988 18.8784 51.21 18.2149C50.0489 17.5237 48.7634 17.1782 47.3535 17.1782C45.9436 17.1782 44.6581 17.5099 43.4969 18.1734C42.3358 18.8369 41.4097 19.8045 40.7186 21.0762C40.0274 22.3479 39.6819 23.8407 39.6819 25.5548C39.6819 27.2964 40.0274 28.8169 40.7186 30.1163C41.4097 31.388 42.3358 32.3694 43.4969 33.0605C44.6581 33.724 45.9436 34.0558 47.3535 34.0558C48.7634 34.0558 50.0489 33.724 51.21 33.0605C52.3988 32.3694 53.3387 31.388 54.0299 30.1163C54.721 28.8169 55.0666 27.3103 55.0666 25.5962ZM73.3035 37.3732C71.5619 37.3732 69.9999 37.0829 68.6176 36.5024C67.2354 35.8942 66.1434 35.0648 65.3416 34.0143C64.5399 32.9361 64.0976 31.7059 64.0147 30.3236H67.9127C68.0232 31.4571 68.5485 32.3832 69.4885 33.102C70.4561 33.8208 71.7139 34.1802 73.2621 34.1802C74.6996 34.1802 75.8331 33.8622 76.6625 33.2264C77.4918 32.5905 77.9065 31.7888 77.9065 30.8212C77.9065 29.826 77.4642 29.0934 76.5795 28.6234C75.6949 28.1258 74.3264 27.642 72.4742 27.172C70.7878 26.7297 69.4055 26.2874 68.3273 25.845C67.2768 25.3751 66.3645 24.6978 65.5904 23.8131C64.844 22.9008 64.4708 21.712 64.4708 20.2468C64.4708 19.0857 64.8164 18.0214 65.5075 17.0538C66.1986 16.0862 67.1801 15.3259 68.4518 14.773C69.7234 14.1925 71.1748 13.9022 72.8059 13.9022C75.3217 13.9022 77.3536 14.538 78.9018 15.8097C80.4499 17.0814 81.2793 18.8231 81.3898 21.0347H77.6162C77.5333 19.846 77.0495 18.8922 76.1648 18.1734C75.3078 17.4546 74.1467 17.0952 72.6815 17.0952C71.3269 17.0952 70.2487 17.3855 69.447 17.9661C68.6453 18.5466 68.2444 19.3069 68.2444 20.2468C68.2444 20.9933 68.4794 21.6153 68.9494 22.1129C69.447 22.5829 70.0552 22.9699 70.774 23.274C71.5204 23.5505 72.5433 23.8684 73.8426 24.2278C75.4737 24.6701 76.8007 25.1124 77.8236 25.5548C78.8465 25.9694 79.7173 26.6053 80.4361 27.4623C81.1825 28.3193 81.5695 29.439 81.5972 30.8212C81.5972 32.0653 81.2516 33.1849 80.5605 34.1802C79.8693 35.1754 78.8879 35.9633 77.6162 36.5438C76.3722 37.0968 74.9346 37.3732 73.3035 37.3732ZM106.497 14.2754L92.8127 47.6988H88.9147L93.3933 36.7512L84.2288 14.2754H88.4171L95.5496 32.6873L102.599 14.2754H106.497Z" fill="#333333"/>
<path d="M130.112 16.7635C129.449 15.5471 128.537 14.621 127.376 13.9851C126.214 13.3493 124.86 13.0314 123.312 13.0314C121.598 13.0314 120.077 13.4184 118.75 14.1925C117.423 14.9665 116.386 16.0724 115.64 17.5099C114.894 18.9475 114.52 20.6062 114.52 22.4861C114.52 24.4213 114.894 26.1077 115.64 27.5452C116.414 28.9828 117.478 30.0886 118.833 30.8627C120.188 31.6368 121.764 32.0238 123.56 32.0238C125.772 32.0238 127.583 31.4433 128.993 30.2821C130.403 29.0934 131.329 27.4485 131.771 25.3474H121.819V20.9103H137.494V25.9694C137.107 27.9876 136.277 29.8536 135.006 31.5677C133.734 33.2817 132.089 34.664 130.071 35.7145C128.081 36.7374 125.841 37.2488 123.353 37.2488C120.561 37.2488 118.031 36.6268 115.764 35.3827C113.525 34.111 111.756 32.3556 110.457 30.1163C109.185 27.877 108.549 25.3336 108.549 22.4861C108.549 19.6386 109.185 17.0952 110.457 14.856C111.756 12.589 113.525 10.8335 115.764 9.58949C118.031 8.31779 120.547 7.68195 123.312 7.68195C126.574 7.68195 129.407 8.48367 131.813 10.0871C134.218 11.6629 135.877 13.8884 136.789 16.7635H130.112ZM147.595 17.5929C148.341 16.3765 149.309 15.4227 150.497 14.7315C151.714 14.0404 153.096 13.6948 154.644 13.6948V19.7907H153.11C151.285 19.7907 149.903 20.2192 148.963 21.0762C148.051 21.9332 147.595 23.4261 147.595 25.5548V37H141.789V14.0266H147.595V17.5929ZM220.045 14.0266L213.328 37H207.066L202.878 20.9518L198.689 37H192.386L185.627 14.0266H191.515L195.579 31.5262L199.975 14.0266H206.112L210.425 31.4847L214.489 14.0266H220.045ZM229.946 18.7954V29.9089C229.946 30.683 230.126 31.2497 230.485 31.6091C230.872 31.9409 231.508 32.1067 232.393 32.1067H235.088V37H231.439C226.546 37 224.099 34.6225 224.099 29.8675V18.7954H221.362V14.0266H224.099V8.34544H229.946V14.0266H235.088V18.7954H229.946ZM252.202 13.6948C253.943 13.6948 255.492 14.0819 256.846 14.856C258.201 15.6024 259.251 16.722 259.998 18.2149C260.772 19.6801 261.159 21.4494 261.159 23.5228V37H255.353V24.3107C255.353 22.4861 254.897 21.09 253.985 20.1224C253.073 19.1272 251.829 18.6296 250.253 18.6296C248.649 18.6296 247.378 19.1272 246.438 20.1224C245.525 21.09 245.069 22.4861 245.069 24.3107V37H239.264V6.31349H245.069V16.8879C245.816 15.8927 246.811 15.1186 248.055 14.5657C249.299 13.9851 250.681 13.6948 252.202 13.6948Z" fill="#0170BF"/>
<path d="M170.5 36.7998C164.159 36.7998 159 31.6409 159 25.2998C159 18.9587 164.159 13.7998 170.5 13.7998C176.841 13.7998 182 18.9587 182 25.2998C182 31.6409 176.841 36.7998 170.5 36.7998Z" fill="#0170BF"/>
<path d="M177.113 30.0028L177.989 20.5693C178.014 20.3055 177.98 20.0396 177.891 19.7903C177.801 19.5411 177.659 19.3147 177.472 19.1274C177.286 18.94 177.061 18.7963 176.814 18.7064C176.566 18.6166 176.301 18.5828 176.039 18.6074L166.614 19.494C166.275 19.5239 165.951 19.6514 165.682 19.8612C165.413 20.0709 165.209 20.3541 165.096 20.677C164.983 21.0083 164.967 21.3649 165.047 21.7053C165.128 22.0458 165.303 22.3563 165.552 22.6007L167.554 24.615L148.902 43.3818C148.84 43.4446 148.803 43.5283 148.797 43.6169C148.792 43.7055 148.82 43.7929 148.875 43.8624C148.929 43.932 149.008 43.9789 149.095 43.9942C149.181 44.0095 149.271 43.9921 149.346 43.9455L157.732 38.7195C157.789 38.6845 157.853 38.6657 157.919 38.6653C157.985 38.6648 158.05 38.6826 158.107 38.7168C158.164 38.7509 158.21 38.8001 158.24 38.859C158.271 38.9178 158.285 38.984 158.281 39.0503L158.078 42.2368C158.073 42.3102 158.091 42.3833 158.128 42.4464C158.166 42.5094 158.222 42.5594 158.288 42.5898C158.355 42.6201 158.429 42.6292 158.501 42.616C158.573 42.6029 158.639 42.5679 158.691 42.5159L172.018 29.1064L174.059 31.1592C174.292 31.3969 174.587 31.5639 174.911 31.6411C175.234 31.7183 175.572 31.7027 175.887 31.596C176.222 31.4782 176.517 31.265 176.734 30.9822C176.952 30.6994 177.083 30.3592 177.113 30.0028Z" fill="#F8F8F8"/>
</svg>
